<?xml version="1.0" encoding="utf-8"?>
<!-- Generator: Adobe Illustrator 21.0.0, SVG Export Plug-In . SVG Version: 6.00 Build 0)  -->
<svg version="1.1" id="Layer_1" xmlns="http://www.w3.org/2000/svg" xmlns:xlink="http://www.w3.org/1999/xlink" x="0px" y="0px"
	 viewBox="0 0 419.5 297.6" style="enable-background:new 0 0 419.5 297.6;" xml:space="preserve">
<style type="text/css">
	.st0{fill:#FFFFFF;}
	.st1{fill:#B7B7B7;}
	.st2{fill:#5C5C5C;}
</style>
<g>
	<path d="M289.75,148.8c10.2-8.8,14.2-23.6,8.7-36.7c-5.4-13.1-18.7-20.8-32.2-19.8c1-13.5-6.6-26.7-19.8-32.2
		c-13.1-5.4-27.9-1.5-36.7,8.7c-8.8-10.2-23.6-14.2-36.7-8.7c-13.1,5.4-20.8,18.7-19.8,32.2c-13.5-1-26.7,6.6-32.2,19.8
		c-5.4,13.1-1.5,27.9,8.7,36.7c-10.2,8.8-14.2,23.6-8.7,36.7c5.4,13.1,18.7,20.8,32.1,19.8c-1,13.5,6.6,26.7,19.8,32.2
		c13.1,5.4,27.9,1.5,36.7-8.8c8.8,10.2,23.6,14.2,36.7,8.7c13.1-5.4,20.8-18.7,19.8-32.2c13.5,1,26.7-6.6,32.2-19.8
		C303.95,172.4,299.95,157.6,289.75,148.8L289.75,148.8z"/>
	<path class="st0" d="M284.05,148.8c9.7-8.1,13.4-21.9,8.4-34.2c-5.1-12.3-17.5-19.4-30.1-18.3c1.1-12.6-6-25-18.3-30.1
		c-12.3-5.1-26.1-1.3-34.2,8.4c-8.1-9.7-21.9-13.4-34.2-8.4c-12.3,5.1-19.4,17.5-18.3,30.1c-12.6-1.1-25,6-30.1,18.3
		s-1.3,26.1,8.4,34.2c-9.7,8.1-13.4,21.9-8.4,34.2c5.1,12.3,17.5,19.4,30.1,18.3c-1.1,12.6,6,25,18.3,30.1s26.1,1.3,34.2-8.4
		c8.1,9.7,21.9,13.4,34.2,8.4c12.3-5.1,19.4-17.5,18.3-30.1c12.6,1.1,25-6,30.1-18.3C297.55,170.7,293.75,156.9,284.05,148.8
		L284.05,148.8z"/>
	<path class="st1" d="M281.55,148.8c8.2-8.3,11.1-21,6.3-32.4c-4.7-11.4-15.7-18.3-27.4-18.4c-0.1-11.6-7-22.6-18.4-27.4
		c-11.4-4.7-24.1-1.8-32.4,6.3c-8.3-8.2-21-11.1-32.4-6.3c-11.4,4.7-18.3,15.7-18.4,27.4c-11.6,0.1-22.6,7-27.4,18.4
		c-4.7,11.4-1.8,24.1,6.3,32.4c-8.2,8.3-11.1,21-6.3,32.4c4.7,11.4,15.7,18.3,27.4,18.4c0.1,11.6,7,22.6,18.4,27.4
		c11.4,4.7,24.1,1.8,32.4-6.3c8.3,8.2,21,11.1,32.4,6.3c11.4-4.7,18.3-15.7,18.4-27.4c11.6-0.1,22.6-7,27.4-18.4
		C292.65,169.8,289.75,157.1,281.55,148.8L281.55,148.8z"/>
	<g>
		<path d="M224.45,213.2c-0.2-0.2-0.4-0.3-0.6-0.4c0.5-0.1,1-0.3,1.3-0.6c0.3-0.3,0.5-0.8,0.5-1.3s-0.2-1-0.5-1.3s-0.7-0.5-1-0.6
			c-0.4,0-1.3-0.1-2.6-0.1h-1.4v6.8h1.4v-2.8h0.4c0.4,0,0.8,0.1,1,0.3c0.2,0.2,0.5,0.7,0.9,1.3l0.6,1.1h1.7l-0.8-1.4
			C224.95,213.8,224.65,213.3,224.45,213.2z M223.45,211.9c-0.2,0-0.7,0-1.3,0h-0.6V210h0.6c0.6,0,1,0,1.3,0c0.2,0,0.4,0.1,0.6,0.3
			c0.2,0.2,0.2,0.4,0.2,0.6s-0.1,0.4-0.2,0.6C223.85,211.8,223.65,211.9,223.45,211.9z"/>
		<path d="M270.55,155.2c-8.6-1.1-14.2,10-19.4,13.1c0.2-1,2.7-10-1.6-12.5c-3-1.8-6.5,0-9,1.7c0.1-0.4,0.3-1.6,0.3-1.6h-8.1
			l-10.3,23.3c-0.6,1.3-2.1,1.6-3.3,1.6c-0.6,0-1.2-0.2-1.5-0.8c-0.3-0.6-0.4-1.2-0.1-1.8l10-22.5h-8.9l-9.9,22.5
			c-0.4,0.9-1.3,1.4-2.3,1.5c-0.6,0.1-1.2-0.4-1.6-0.9c-0.3-0.5-0.3-1.4-0.1-1.9l9.1-21.1h-8.7l-9.7,22.2c-0.5,1.3-1.9,2.2-3.2,2.6
			c-0.8,0.2-1.7,0-2.1-0.7c-0.5-0.7-0.3-1.6,0-2.4c2.3-5.7,5.3-11.1,7.2-16.9c0.5-1.5,0.3-3.5-1.1-4.4c-3.5-2.4-7.5-0.5-10.6,1.5
			l5.7-13.3h-8.8l-13.3,29.8c-4.2,4.4-10.1,8.8-16,6.3c-2.9-1.2-4.3-4.3-4.3-7.2c-0.1-5.2,1.2-10,3.9-14.1c2.7-3.9,6.2-8.8,11.3-9.3
			c1.3-0.1,2.6,0.6,3.1,1.8c0.6,1.5-0.1,3-1.1,4.1c-1.1,1.2-2.6,1.9-4,2.2c0.7,3.4,5.7,3.3,8.2,2.2c1.9-0.9,3.7-2.7,4.3-4.7
			c0.7-2.4,0.3-5.2-1.3-7.2c-3-3.6-8-4-12.4-3c-9.5,2.2-18.2,10.8-20.6,20.1c-1.9,7.1-1.4,16.3,5.3,20.4c7.8,4.8,14.8,0,20.3-4
			l-2,4.5h9l9.7-21.8c1-2.2,5.4-1.8,4.2,0.9l-5.3,12c-0.7,1.5-1.2,3-1.2,4.7c0,1.8,0.6,3.7,2.4,4.4c4.3,1.9,8.7-0.9,11.9-3.7
			c0.4,2.1,1.6,3.6,3.9,4c3.5,0.7,6.4-1.3,9.1-2.9c0.5,1,0.8,2.2,2,2.8c3.4,1.7,7.5-0.2,10.4-1.8l-3.1,6.7c-7.7-1.6-16.3-2-23.8,0.6
			c-4.1,1.4-8.5,5.4-8.8,10.2c-0.2,3.6,1.5,6.8,4.4,8.6c5.9,3.6,14.3,3.6,20.6,0.7c3.7-1.7,6.9-4.5,9.7-7.8
			c12.3,2.6,27.2,4.6,35.9-6.4c0.2-0.2,1.3-1.9,1.6-3.5c-1.6,1.1-3.4,1.7-5.3,2.1c-4.7,0.9-9.6,0.7-14.4,0.3
			c-3.2-0.3-8.8-1.4-11.6-2.7l4.7-10.2c0.7,1.6,2.1,2.9,3.8,3.2c5.2,1,9.2-2.3,12.5-5.9l15.3-16.7c0.5-0.6,1.3-1.6,2.3-1.4
			c0.3,0.1,0.4,0.4,0.3,0.7c-0.9,2.3-1.7,4.6-2.4,7c-1.1,3.7-0.7,8-2.9,11.2c-0.5,0.7-1.4,1.1-2.3,1.2c-0.9,0-1.8-0.4-2.2-1.3
			c-0.7-1.5,0.3-3.3,1.4-4.3c-0.5-0.5-1.3-0.5-1.8-0.5c-1.3,0.1-2.5,0.8-3.3,1.9c-0.8,1-1.1,2.4-0.9,3.8c0.3,2.1,2.3,3.8,4.3,4.3
			c4.2,1.1,8.5-0.1,11.8-2.9c5.7-4.9,3.9-13,3.3-19.4c-0.3-3.2,1.4-6.3,4.3-7.6C272.45,155.6,271.25,155.2,270.55,155.2z
			 M192.75,207.6c-2.5-1.5-2.8-4.9,0.1-6.3c3-1.4,6.5-1.1,9.8-0.9c2.7,0.2,5.3,0.8,7.8,1.6C206.85,208,199.15,211.3,192.75,207.6z
			 M242.15,165.8c-1.5,4.5-3.7,9.3-6.1,13.1c-0.8,1.2-4.1,1.9-4.1,0v-1l6.3-14.1c0.4-0.9,1.3-1.2,2.2-1.3c0.7-0.1,1.4,0.4,1.7,0.9
			C242.45,164,242.35,165.1,242.15,165.8z"/>
		<path d="M226.15,206.7c-1-0.5-2-0.7-3-0.7c-1.1,0-2.1,0.3-3,0.8c-1,0.5-1.8,1.3-2.4,2.3s-1,2.1-1,3.4c0,1.8,0.6,3.3,1.9,4.5
			s2.8,1.9,4.5,1.9c1.8,0,3.3-0.6,4.5-1.9c1.3-1.3,1.9-2.8,1.9-4.5c0-1.2-0.3-2.4-1-3.4C227.85,208,227.05,207.2,226.15,206.7z
			 M226.75,216c-1,1-2.2,1.5-3.6,1.5s-2.6-0.5-3.6-1.5s-1.5-2.2-1.5-3.6c0-1.5,0.5-2.7,1.5-3.7s2.2-1.5,3.6-1.5s2.6,0.5,3.6,1.5
			s1.5,2.2,1.5,3.7C228.25,213.8,227.75,215,226.75,216z"/>
		<path d="M154.65,140c6,2.3,10.9,0,15.9-3.5l-1.4,3.4h8.3l8.3-18.4c0.8-1.7,4.6-1.4,3.8,0.7l-5.1,11.9c-0.8,1.9-0.1,4.2,1.7,5.4
			c3.8,2.5,8.3,0,11.5-1.9c0.4,1,0.9,2.1,1.9,2.7c3,1.5,7.3,0.1,9.8-1.6c0.2-0.1,1.1,1,2.1,1.6c3.3,1.9,7.8,0.2,10.5-1.7
			c-1.7,3.9-3.3,10.1-7.4,11.8c-0.7,0.3-2.2-0.3-2.1,0.7c1.5,1.8,4.1,2,6.4,1.6c7.1-1.3,8.3-9.2,11.3-14.2c0.8,0.9,1.6,2,3,2.2
			c7.6,1.3,12-6.5,17.2-10.6c-0.8,2.7-2.2,6.9,0.8,9.8c3,2.8,8.3,1,11.2-1.2l1.1,1.8c0.9,1.4,3.1,1.2,4.7,0.9
			c1.8-0.4,4.7-1.6,4.7-3.2c-2.2,0.4-3.8-0.8-2.8-3.1c2.9-7,9.1-21.2,9.1-21.2h-8.1l-1,2.3c-0.5-1.2-1.7-2.2-2.9-2.4
			c-9.7-1.9-13.1,9.3-18.5,12.7c0.9-3.4,3-9-0.3-11.8c-2.5-2.1-5.9-0.4-8.4,0.7l0.5-1.5h-7.7l-8.5,19.3c-0.6,1.4-2.1,2.2-3.5,2.4
			c-0.6,0.1-1.2-0.2-1.6-0.8c-0.5-0.6-0.5-1.5-0.2-2.2l8.3-18.8h-8.3l-7.3,16.8c0,0.1-1.4,3.9-2.9,4.4c-0.7,0.3-1.7,0.1-2.1-0.7
			c-0.3-0.6-0.2-1.4,0.1-2l8.2-18.5h-8.1l-8.5,19.2c-0.7,1.5-4.1,3.2-5.1,0.9c-0.4-0.8-0.2-1.8,0.2-2.5l3.8-8.6
			c1.2-2.6,4-6.9,0.5-8.9c-3.6-2.1-7.2,0.5-9.5,2l5.9-13.6h-8.1l-12.1,26.7c-1.6,3.5-5.9,5.2-9.5,5.9c-2.9,0.5-5.8-0.1-7.3-2.5
			c-3.7-5.8-0.5-12.9,2.3-18c2.1-3.8,5.8-8.8,10.7-8.5c0.8,0.1,1.8,0.4,2.2,1.4c1.1,3.2-2.5,5.5-4.9,6.8c0.4,2.8,5.3,3,7.3,1.9
			c2.6-1.4,4.2-4,4.4-6.8c0.2-2.3-1-4.5-3-5.8c-5.4-3.6-12.7-1.6-17.5,1.9c-7.7,5.5-12.1,13.8-11.8,22.9
			C147.05,133.1,149.85,138.2,154.65,140z M261.75,124.1c0.9-1.8,2-4.4,4.3-4.6c1.7-0.2,2.2,1.3,1.6,2.7l-5.5,12.4
			c-0.5,1.1-1.9,1.6-3.2,1c-0.4-0.2-0.8-0.6-0.8-1C258.15,130.8,260.15,127.4,261.75,124.1z M232.95,132.3l5-11.4
			c0.7-1.6,3.6-1.8,3.8-0.4c0.6,3.5-4.1,13.2-7.3,14.9c-0.8,0.4-1.9,0-2.1-0.8C232.25,133.9,232.65,133,232.95,132.3z"/>
	</g>
	<path class="st2" d="M300.75,111.1c-5.5-13.3-18.3-21.3-31.9-21.4c-0.1-13.5-8.1-26.4-21.4-31.9c-13.3-5.5-28-2.1-37.7,7.4
		c-9.6-9.5-24.4-12.9-37.7-7.4s-21.3,18.3-21.4,31.9c-13.5,0.1-26.4,8.1-31.9,21.4c-5.5,13.3-2.1,28,7.4,37.7
		c-9.5,9.6-12.9,24.4-7.4,37.7c5.5,13.3,18.3,21.3,31.9,21.4c0.1,13.5,8.1,26.4,21.4,31.9c13.3,5.5,28,2.1,37.7-7.4
		c9.6,9.5,24.4,12.9,37.7,7.4c13.2-5.5,21.3-18.3,21.4-31.9c13.5-0.1,26.4-8.1,31.9-21.4s2.1-28-7.4-37.7
		C302.85,139.1,306.25,124.4,300.75,111.1L300.75,111.1z M296.25,184.6c-5.4,13.1-19.3,20.3-32.7,17.9c2.4,13.4-4.8,27.3-17.9,32.7
		c-13.1,5.4-28,0.7-35.8-10.4c-7.8,11.2-22.7,15.9-35.8,10.4c-13.1-5.4-20.3-19.3-17.9-32.7c-13.5,2.4-27.3-4.8-32.7-17.9
		s-0.7-28,10.4-35.8c-11.2-7.8-15.9-22.7-10.4-35.8c5.4-13.1,19.3-20.3,32.7-17.9c-2.4-13.4,4.8-27.3,17.9-32.7
		c13.1-5.4,28-0.7,35.8,10.4c7.8-11.2,22.7-15.9,35.8-10.4c13.1,5.4,20.3,19.3,17.9,32.7c13.4-2.4,27.3,4.8,32.7,17.9
		c5.4,13.1,0.7,28-10.4,35.8C296.95,156.6,301.65,171.5,296.25,184.6L296.25,184.6z"/>
</g>
</svg>
